Coordinates
version=1
nRows=24
nColumns=24
inDegrees=yes

Units are S.I. units (second, meters, Newtons, ...)
Angles are in degrees.

endheader
time	pelvis_tilt	pelvis_list	pelvis_rotation	pelvis_tx	pelvis_ty	pelvis_tz	hip_flexion_r	hip_adduction_r	hip_rotation_r	knee_angle_r	ankle_angle_r	subtalar_angle_r	mtp_angle_r	hip_flexion_l	hip_adduction_l	hip_rotation_l	knee_angle_l	ankle_angle_l	subtalar_angle_l	mtp_angle_l	lumbar_extension	lumbar_bending	lumbar_rotation
      5.89500000	     14.94201954	     -7.68229010	     20.05948661	      2.33945367	      0.93397510	     -0.23325641	     -9.31823952	     15.65505033	     -3.82024129	     -8.22170532	     19.55247613	     -5.96759739	      0.00000000	      0.55987614	    -12.70828038	     13.25642521	    -68.16048607	     11.30405193	     -0.89396646	      0.00000000	    -23.64167571	     13.72517349	    -16.75292466
      5.90000000	     14.97406311	     -7.44585095	     19.67297464	      2.34527638	      0.93474665	     -0.23282681	    -10.09401370	     15.50430130	     -3.44263437	     -7.76895868	     19.60161522	     -5.85390547	      0.00000000	      1.10541451	    -12.17884493	     12.94529143	    -68.13900901	     11.89870423	     -1.22158911	      0.00000000	    -23.87320372	     13.34576657	    -16.18516071
      5.90500000	     14.88440632	     -7.22058754	     19.47124491	      2.35108263	      0.93532459	     -0.23259614	    -10.72175822	     15.35024869	     -3.29837904	     -7.27885926	     19.59991567	     -5.74997654	      0.00000000	      1.84571758	    -11.61632695	     12.85239514	    -68.07426094	     12.50620310	     -1.36302241	      0.00000000	    -23.90107190	     13.00814956	    -15.90133477
      5.91000000	     14.87320709	     -6.99444392	     19.04642633	      2.35688814	      0.93600683	     -0.23218602	    -11.44191065	     15.16419002	     -2.97341640	     -6.84220657	     19.65871697	     -5.53391798	      0.00000000	      2.40438137	    -11.09017782	     12.49698593	    -67.87648262	     13.06322036	     -1.58617213	      0.00000000	    -24.07823057	     12.61820121	    -15.30529002
      5.91500000	     14.77667873	     -6.78298689	     18.81756645	      2.36264498	      0.93650031	     -0.23192959	    -12.04331138	     15.00446446	     -2.85522312	     -6.37477759	     19.65495156	     -5.39378978	      0.00000000	      3.12359658	    -10.55396704	     12.36264420	    -67.64221206	     13.65655650	     -1.58898186	      0.00000000	    -24.10424689	     12.28472026	    -14.99324141
      5.92000000	     14.75528849	     -6.57506669	     18.35699724	      2.36837575	      0.93709781	     -0.23149171	    -12.72443719	     14.80609452	     -2.56838931	     -5.97407432	     19.72181405	     -5.11033812	      0.00000000	      3.66702589	    -10.06086453	     11.96382951	    -67.27267896	     14.20318493	     -1.71136180	      0.00000000	    -24.27875281	     11.90122323	    -14.35985116
      5.92500000	     14.72009665	     -6.37067225	     17.99239065	      2.37411959	      0.93761447	     -0.23114446	    -13.38486932	     14.62454430	     -2.37284984	     -5.54683857	     19.74752030	     -4.88856103	      0.00000000	      4.24225199	     -9.57616087	     11.66422057	    -66.83397441	     14.75063741	     -1.68504017	      0.00000000	    -24.40082974	     11.54525572	    -13.86363878
      5.93000000	     14.66701883	     -6.18829865	     17.63354995	      2.37983170	      0.93805784	     -0.23080093	    -14.00666852	     14.45306788	     -2.21086884	     -5.13530523	     19.77936667	     -4.63304032	      0.00000000	      4.83388024	     -9.11778868	     11.37118894	    -66.31749111	     15.28452823	     -1.61554187	      0.00000000	    -24.49604713	     11.21184485	    -13.36717884
      5.93500000	     14.63245214	     -6.01712351	     17.23697957	      2.38554400	      0.93849938	     -0.23043846	    -14.64278540	     14.28038947	     -2.03279316	     -4.73380734	     19.78669623	     -4.35538941	      0.00000000	      5.37858909	     -8.69032812	     11.03449094	    -65.70619552	     15.77611973	     -1.52036500	      0.00000000	    -24.61353699	     10.88428254	    -12.81876155
      5.94000000	     14.58263490	     -5.86017310	     16.86108343	      2.39121089	      0.93885805	     -0.23009993	    -15.23831319	     14.11597057	     -1.89344501	     -4.35904946	     19.81889368	     -4.07500017	      0.00000000	      5.93579959	     -8.27857723	     10.72661764	    -65.02094638	     16.27832390	     -1.38016352	      0.00000000	    -24.71247304	     10.57296395	    -12.30618503
      5.94500000	     14.53103059	     -5.71961918	     16.48892703	      2.39688917	      0.93915957	     -0.22975036	    -15.82071258	     13.96450590	     -1.76581095	     -3.99350522	     19.86756550	     -3.79204395	      0.00000000	      6.48184406	     -7.90100283	     10.41308852	    -64.25350073	     16.75972107	     -1.20681758	      0.00000000	    -24.79619552	     10.27579245	    -11.79094885
      5.95000000	     14.50192528	     -5.58700810	     16.07522780	      2.40250387	      0.93948434	     -0.22942150	    -16.41053905	     13.80209089	     -1.61086317	     -3.65921730	     19.86492312	     -3.48545189	      0.00000000	      6.97239830	     -7.54139856	     10.07347942	    -63.38872305	     17.19853963	     -1.03177675	      0.00000000	    -24.92434674	      9.99430853	    -11.22284295
      5.95500000	     14.41032990	     -5.48633594	     15.81684061	      2.40813666	      0.93961735	     -0.22917895	    -16.91461149	     13.70410307	     -1.57978625	     -3.29957949	     19.84386570	     -3.26942031	      0.00000000	      7.56986540	     -7.20072484	      9.90004233	    -62.48739843	     17.63099610	     -0.72094216	      0.00000000	    -24.93419454	      9.76711281	    -10.84792925
      5.96000000	     14.43995724	     -5.37478173	     15.28512242	      2.41374455	      0.93995300	     -0.22876571	    -17.54424402	     13.52720740	     -1.34388371	     -3.02777131	     19.90459945	     -2.90592137	      0.00000000	      7.91936524	     -6.91983982	      9.42698728	    -61.42436613	     18.01047291	     -0.61190894	      0.00000000	    -25.14211984	      9.48046113	    -10.11944659
      5.96500000	     14.44201466	     -5.26560892	     14.89207023	      2.41932747	      0.94016923	     -0.22846350	    -18.12806838	     13.38484333	     -1.20077057	     -2.74290229	     19.92132266	     -2.63969900	      0.00000000	      8.31584053	     -6.62823593	      9.11763441	    -60.30732918	     18.40010717	     -0.36666805	      0.00000000	    -25.29493144	      9.23120268	     -9.58298594
      5.97000000	     14.42477745	     -5.18472648	     14.50740059	      2.42487456	      0.94031371	     -0.22820260	    -18.66550505	     13.25919474	     -1.06886077	     -2.48941447	     19.94333897	     -2.36383002	      0.00000000	      8.72051407	     -6.36487420	      8.83021952	    -59.11688446	     18.77005257	     -0.12906359	      0.00000000	    -25.42581977	      9.01877600	     -9.04918636
      5.97500000	     14.35206435	     -5.13351332	     14.23844186	      2.43045191	      0.94030228	     -0.22801350	    -19.12331045	     13.18879444	     -1.00985858	     -2.23698750	     19.96526982	     -2.15107335	      0.00000000	      9.19833803	     -6.11959927	      8.67301511	    -57.87454075	     19.12795928	      0.21507740	      0.00000000	    -25.45225143	      8.85267988	     -8.66007139
      5.98000000	     14.47184617	     -5.03054103	     13.73987546	      2.43596809	      0.94058821	     -0.22768516	    -19.80047237	     13.02011240	     -0.73975175	     -2.02805145	     19.96697283	     -1.94951074	      0.00000000	      9.34784711	     -5.90576127	      8.27115194	    -56.46583015	     19.42979581	      0.38772636	      0.00000000	    -25.77194179	      8.61046949	     -7.98443695
      5.98500000	     14.44001833	     -5.00398714	     13.37471474	      2.44149355	      0.94059701	     -0.22750822	    -20.27215408	     12.92898447	     -0.63200926	     -1.84390789	     20.00608090	     -1.64829327	      0.00000000	      9.69831097	     -5.71747788	      8.04120244	    -55.03449444	     19.70305825	      0.62715975	      0.00000000	    -25.87089304	      8.46369717	     -7.46862842
      5.99000000	     14.45919130	     -4.96512987	     12.99089707	      2.44701031	      0.94064307	     -0.22731134	    -20.79211406	     12.82589272	     -0.45616847	     -1.68029905	     20.02559780	     -1.44160256	      0.00000000	      9.94590620	     -5.54387148	      7.80141060	    -53.50423352	     19.96263951	      0.88183274	      0.00000000	    -26.03921574	      8.30552739	     -6.94001595
      5.99500000	     14.47300170	     -4.94089503	     12.63445689	      2.45250882	      0.94063317	     -0.22715705	    -21.28446109	     12.73895692	     -0.29869317	     -1.54881825	     20.05593240	     -1.24150246	      0.00000000	     10.17582991	     -5.38763932	      7.60309909	    -51.89864388	     20.20600172	      1.12939812	      0.00000000	    -26.20094493	      8.17378946	     -6.45067312
      6.00000000	     14.50539482	     -4.92222162	     12.27560792	      2.45802666	      0.94061827	     -0.22703456	    -21.79078739	     12.65150483	     -0.11547276	     -1.43053414	     20.08543765	     -1.06008192	      0.00000000	     10.34475215	     -5.24965738	      7.41755476	    -50.20689564	     20.40669624	      1.37861265	      0.00000000	    -26.37849486	      8.05415391	     -5.95691318
      6.00500000	     14.55442756	     -4.91033751	     11.92734608	      2.46354398	      0.94058954	     -0.22693113	    -22.30330726	     12.57128494	      0.07284551	     -1.33138933	     20.10525267	     -0.89586273	      0.00000000	     10.46064346	     -5.12925400	      7.25850110	    -48.43547091	     20.56331825	      1.62236788	      0.00000000	    -26.57503676	      7.94518898	     -5.47277678
      6.01000000	     14.67836395	     -4.87431037	     11.59970389	      2.46906915	      0.94061382	     -0.22684869	    -22.89993572	     12.48317355	      0.28098560	     -1.22821504	     20.09796231	     -0.80451104	      0.00000000	     10.44820890	     -5.00743799	      7.13030717	    -46.57553104	     20.67207103	      1.88386384	      0.00000000	    -26.85862605	      7.82964089	     -5.01363662
